<svg width="50" height="50" viewBox="0 0 50 50" fill="none" xmlns="http://www.w3.org/2000/svg">
<g clip-path="url(#clip0_102_14)" filter="url(#filter0_d_102_14)">
<path d="M10 37.4216C10 29.1407 10 20.8593 10 12.5784C10.0183 12.5352 10.0443 12.4939 10.0538 12.449C10.1991 11.7343 10.56 11.153 11.1164 10.6828C11.5441 10.3219 12.0532 10.1471 12.5784 10C20.8598 10 29.1407 10 37.4222 10C37.4553 10.0171 37.4872 10.0419 37.5226 10.0496C39.0271 10.3692 39.9988 11.5559 39.9994 13.094C40.0012 21.0323 40.0012 28.97 39.9965 36.9083C39.9965 37.1789 39.9693 37.4571 39.9037 37.7188C39.557 39.0992 38.3579 39.9994 36.8794 39.9994C28.9606 40.0006 21.0424 39.9994 13.1236 39.9994C13.0356 39.9994 12.9475 40.0006 12.8601 39.9953C12.0196 39.9445 11.3267 39.593 10.7602 38.9746C10.3532 38.5304 10.1536 37.9881 10 37.4216ZM35.4836 35.4842C35.4883 35.3967 35.4942 35.3395 35.4942 35.2822C35.4942 32.5095 35.5072 29.7362 35.4901 26.9635C35.4789 25.1341 34.6814 23.6839 33.1941 22.6449C31.5897 21.5238 29.6003 21.2981 27.8265 22.5156C27.3533 22.8404 26.9487 23.2651 26.508 23.6485V22.0223H22.0306V35.48H26.5039V35.1209C26.5039 32.6997 26.5039 30.2778 26.5051 27.8566C26.5051 27.6617 26.511 27.4655 26.5293 27.2718C26.6551 25.9705 28.1017 25.0118 29.3463 25.4017C30.3871 25.7277 30.9943 26.5748 30.9961 27.7237C30.9996 30.1939 30.9973 32.6642 30.9973 35.1345C30.9973 35.2479 30.9973 35.3619 30.9973 35.4854H35.4842L35.4836 35.4842ZM18.9815 35.4842V22.0259H14.5253V35.4842H18.9815ZM19.4416 16.7475C19.4398 15.2566 18.2183 14.0368 16.741 14.0498C15.2631 14.0628 14.0699 15.2548 14.0504 16.7362C14.0315 18.2106 15.2518 19.4363 16.7439 19.441C18.2378 19.4463 19.444 18.2419 19.4416 16.7475Z" fill="#E94109"/>
</g>
<defs>
<filter id="filter0_d_102_14" x="9" y="10" width="32" height="33" filterUnits="userSpaceOnUse" color-interpolation-filters="sRGB">
<feFlood flood-opacity="0" result="BackgroundImageFix"/>
<feColorMatrix in="SourceAlpha" type="matrix" values="0 0 0 0 0 0 0 0 0 0 0 0 0 0 0 0 0 0 127 0" result="hardAlpha"/>
<feOffset dy="2"/>
<feGaussianBlur stdDeviation="0.5"/>
<feComposite in2="hardAlpha" operator="out"/>
<feColorMatrix type="matrix" values="0 0 0 0 0 0 0 0 0 0 0 0 0 0 0 0 0 0 0.25 0"/>
<feBlend mode="normal" in2="BackgroundImageFix" result="effect1_dropShadow_102_14"/>
<feBlend mode="normal" in="SourceGraphic" in2="effect1_dropShadow_102_14" result="shape"/>
</filter>
<clipPath id="clip0_102_14">
<rect width="30" height="30" fill="white" transform="translate(10 10)"/>
</clipPath>
</defs>
</svg>
