<svg width="50" height="50" viewBox="0 0 50 50" fill="none" xmlns="http://www.w3.org/2000/svg">
<g clip-path="url(#clip0_102_9)">
<path d="M40 18.8861V30.9879C39.9835 31.0927 39.9629 31.1974 39.9517 31.3028C39.8882 31.8948 39.8582 32.4921 39.7593 33.0776C39.4404 34.9654 38.6342 36.6019 37.1848 37.8871C35.6141 39.2806 33.7234 39.8361 31.6773 39.975C30.967 40.0233 30.2562 40.0544 29.5453 40.0939H20.5C20.3158 40.078 20.1322 40.0521 19.948 40.0474C18.7446 40.0168 17.5424 39.9697 16.3654 39.6808C13.8915 39.0741 12.0508 37.6659 10.9551 35.3455C10.2736 33.9026 10.0677 32.3502 10.0512 30.7755C10.0176 27.5354 9.99057 24.2959 10.0029 21.057C10.0088 19.5817 10.0241 18.0994 10.3431 16.6459C10.9074 14.0719 12.3121 12.14 14.7189 10.9978C16.143 10.3222 17.673 10.1215 19.2277 10.085C23.3758 9.98677 27.5245 9.93852 31.6714 10.1392C32.8795 10.1974 34.0612 10.4317 35.1693 10.9336C37.9221 12.1812 39.3691 14.3926 39.8217 17.3191C39.9017 17.8381 39.9417 18.3636 40.0006 18.8861H40ZM24.9835 37.4352C24.9835 37.4199 24.9841 37.4046 24.9847 37.3893C25.7873 37.3893 26.5906 37.4128 27.3927 37.3846C29.1028 37.3234 30.8258 37.344 32.5176 37.1309C34.8303 36.8397 36.3945 35.5062 36.96 33.2041C37.1883 32.2737 37.2666 31.2887 37.2824 30.3265C37.3342 27.3024 37.3448 24.2765 37.3266 21.2518C37.3195 20.0407 37.2601 18.822 37.1094 17.6215C36.8052 15.1947 35.2993 13.5564 32.8996 13.0762C31.8715 12.8703 30.8023 12.8091 29.7507 12.7938C26.9325 12.7531 24.1126 12.7473 21.2944 12.7802C19.9768 12.7955 18.644 12.8285 17.3476 13.038C15.0879 13.4028 13.5855 14.741 13.0753 17.0019C12.847 18.0134 12.7834 19.0756 12.7599 20.1172C12.7046 22.5541 12.6887 24.9927 12.7152 27.4301C12.7334 29.1113 12.7764 30.799 12.9429 32.4709C13.1118 34.1698 13.9256 35.555 15.4386 36.443C16.3866 36.9991 17.4417 37.2304 18.5263 37.2692C20.6777 37.3463 22.8303 37.3828 24.9829 37.4364L24.9835 37.4352Z" fill="#E94109"/>
<path d="M25.0153 32.7849C20.7472 32.7749 17.2799 29.3 17.2929 25.0459C17.3058 20.7749 20.7848 17.3111 25.0383 17.3341C29.3117 17.3576 32.7372 20.7902 32.7419 25.0536C32.7466 29.3182 29.2723 32.7943 25.0153 32.7843V32.7849ZM20.0145 25.0565C20.0134 27.8282 22.2401 30.0591 25.0112 30.0632C27.7852 30.0673 30.0155 27.847 30.0249 25.0736C30.0344 22.2902 27.7982 20.0493 25.0136 20.0516C22.2431 20.054 20.0163 22.2837 20.0145 25.0565Z" fill="#E94109"/>
<path d="M34.8468 17.0059C34.8568 18.0022 34.0718 18.8131 33.0844 18.8272C32.0805 18.8413 31.2566 18.041 31.249 17.0448C31.2413 16.0485 32.024 15.2441 33.0161 15.2288C34.03 15.2129 34.8368 15.9961 34.8468 17.0065V17.0059Z" fill="#E94109"/>
</g>
<defs>
<clipPath id="clip0_102_9">
<rect width="30" height="30.0936" fill="white" transform="translate(10 10)"/>
</clipPath>
</defs>
</svg>
