<svg width="50" height="50" viewBox="0 0 50 50" fill="none" xmlns="http://www.w3.org/2000/svg">
<g clip-path="url(#clip0_102_5)" filter="url(#filter0_d_102_5)">
<path d="M10.4312 15.6396C11.2641 16.4279 12.0593 17.1794 12.8537 17.9317C15.6681 20.6 18.4825 23.2691 21.2977 25.9365C22.1762 26.7687 23.2095 27.2661 24.4172 27.3972C25.9389 27.5633 27.3156 27.1781 28.4491 26.1618C30.1041 24.6778 31.7027 23.1291 33.3219 21.6037C35.3392 19.7031 37.3538 17.7989 39.3693 15.8964C39.4328 15.8363 39.5026 15.7824 39.5974 15.7025C39.864 16.1738 40 16.656 40 17.1785C40 22.2295 40.0018 27.2796 39.9937 32.3306C39.9937 32.617 39.9436 32.9115 39.8658 33.1871C39.4776 34.5643 38.2386 35.5061 36.8153 35.5061C28.9375 35.5088 21.0589 35.5088 13.1812 35.5061C11.4349 35.507 10.0036 34.075 10.0027 32.3288C9.99821 27.2778 10.0009 22.2268 10 17.1767C10 16.6389 10.144 16.1442 10.4312 15.6396Z" fill="#E94109"/>
<path d="M12.0961 14.1498C12.5004 14.1013 12.9048 14.0116 13.3082 14.0107C20.0946 14.0017 26.88 14.0044 33.6655 14.0044C34.7372 14.0044 35.8089 13.99 36.8797 14.0134C37.2447 14.0214 37.6079 14.1247 38.0633 14.2001C37.3154 14.9076 36.6516 15.536 35.9869 16.1636C33.1081 18.8785 30.2276 21.5926 27.3488 24.3066C26.2332 25.3588 24.8323 25.6075 23.5656 24.9521C23.2722 24.8004 22.9921 24.6002 22.7515 24.373C19.234 21.0476 15.7236 17.7141 12.2124 14.3832C12.173 14.3455 12.1363 14.3042 12.0988 14.2647C12.0988 14.2261 12.097 14.1884 12.0961 14.1498Z" fill="#E94109"/>
</g>
<defs>
<filter id="filter0_d_102_5" x="9" y="14" width="32" height="24.5098" filterUnits="userSpaceOnUse" color-interpolation-filters="sRGB">
<feFlood flood-opacity="0" result="BackgroundImageFix"/>
<feColorMatrix in="SourceAlpha" type="matrix" values="0 0 0 0 0 0 0 0 0 0 0 0 0 0 0 0 0 0 127 0" result="hardAlpha"/>
<feOffset dy="2"/>
<feGaussianBlur stdDeviation="0.5"/>
<feComposite in2="hardAlpha" operator="out"/>
<feColorMatrix type="matrix" values="0 0 0 0 0 0 0 0 0 0 0 0 0 0 0 0 0 0 0.25 0"/>
<feBlend mode="normal" in2="BackgroundImageFix" result="effect1_dropShadow_102_5"/>
<feBlend mode="normal" in="SourceGraphic" in2="effect1_dropShadow_102_5" result="shape"/>
</filter>
<clipPath id="clip0_102_5">
<rect width="30" height="21.5094" fill="white" transform="translate(10 14)"/>
</clipPath>
</defs>
</svg>
