<svg width="50" height="50" viewBox="0 0 50 50" fill="none" xmlns="http://www.w3.org/2000/svg">
<g clip-path="url(#clip0_102_13)" filter="url(#filter0_d_102_13)">
<path d="M26.0566 40H23.9472C23.5913 39.9524 23.2348 39.9098 22.8804 39.8563C20.7725 39.5402 18.8084 38.8333 17.0101 37.6827C16.8326 37.569 16.6792 37.5434 16.4723 37.6108C14.7437 38.1755 13.0107 38.7277 11.2785 39.2821C11.1949 39.3092 11.1068 39.3239 10.9857 39.3525C11.5815 37.5808 12.1567 35.856 12.7466 34.1363C12.8317 33.8877 12.8038 33.7073 12.6556 33.4932C11.3284 31.5821 10.5008 29.4737 10.164 27.1696C9.87714 25.2065 9.95858 23.2609 10.456 21.3411C11.3951 17.7133 13.4003 14.8026 16.4811 12.6774C20.0043 10.2486 23.9068 9.48523 28.0926 10.3344C31.1799 10.9607 33.8036 12.4721 35.9555 14.7762C37.9761 16.9388 39.2579 19.4791 39.7664 22.3993C39.8595 22.9339 39.9226 23.4736 39.9989 24.0111V26.0021C39.9549 26.3578 39.9182 26.7142 39.8661 27.0684C39.4384 29.9849 38.2872 32.5787 36.3473 34.8014C33.9306 37.5705 30.9011 39.2564 27.262 39.8284C26.8607 39.8915 26.4579 39.9428 26.0558 39.9993L26.0566 40ZM29.7896 33.4433C30.2599 33.3678 30.6077 33.3524 30.929 33.2541C33.1851 32.564 33.9907 31.4721 34.0318 29.4693C34.0377 29.1826 33.9342 28.9861 33.673 28.8614C32.5402 28.3209 31.4132 27.7658 30.2753 27.2371C29.7302 26.9841 29.4007 27.0948 29.0368 27.5825C28.7514 27.9653 28.4726 28.3539 28.1791 28.7309C27.6846 29.3659 27.3794 29.4437 26.6406 29.1401C24.1453 28.1134 22.3022 26.3512 20.9251 24.0669C20.7145 23.7178 20.7336 23.5088 21.0036 23.1876C21.3052 22.829 21.6243 22.4865 21.9288 22.1301C22.2648 21.7356 22.3646 21.3213 22.1364 20.8116C21.6984 19.8355 21.2765 18.8499 20.9068 17.8467C20.6529 17.1567 20.2457 16.8179 19.4944 16.8707C18.8898 16.9125 18.3021 16.9719 17.8399 17.4104C16.5743 18.6101 16.1223 20.1025 16.3652 21.7965C16.5589 23.1443 17.1957 24.3162 17.9639 25.425C19.2376 27.2635 20.6822 28.9406 22.4453 30.3339C24.0382 31.5923 25.8526 32.4012 27.7771 32.9791C28.4711 33.1874 29.1916 33.3091 29.7896 33.4455V33.4433Z" fill="#E94109"/>
</g>
<defs>
<filter id="filter0_d_102_13" x="9" y="10" width="32" height="33" filterUnits="userSpaceOnUse" color-interpolation-filters="sRGB">
<feFlood flood-opacity="0" result="BackgroundImageFix"/>
<feColorMatrix in="SourceAlpha" type="matrix" values="0 0 0 0 0 0 0 0 0 0 0 0 0 0 0 0 0 0 127 0" result="hardAlpha"/>
<feOffset dy="2"/>
<feGaussianBlur stdDeviation="0.5"/>
<feComposite in2="hardAlpha" operator="out"/>
<feColorMatrix type="matrix" values="0 0 0 0 0 0 0 0 0 0 0 0 0 0 0 0 0 0 0.25 0"/>
<feBlend mode="normal" in2="BackgroundImageFix" result="effect1_dropShadow_102_13"/>
<feBlend mode="normal" in="SourceGraphic" in2="effect1_dropShadow_102_13" result="shape"/>
</filter>
<clipPath id="clip0_102_13">
<rect width="30" height="30" fill="white" transform="translate(10 10)"/>
</clipPath>
</defs>
</svg>
