<svg width="195" height="87" viewBox="0 0 195 87" fill="none" xmlns="http://www.w3.org/2000/svg">
<path d="M100.323 62.3733H107.043V66.3333H95.1933V45.2733H100.323V62.3733ZM120.62 45.2733V66.3333H115.49V45.2733H120.62ZM154.188 45.2733V66.3333H149.058V53.7033L144.348 66.3333H140.208L135.468 53.6733V66.3333H130.338V45.2733H136.398L142.308 59.8533L148.158 45.2733H154.188ZM176.987 62.6133H169.127L167.867 66.3333H162.497L170.117 45.2733H176.057L183.677 66.3333H178.247L176.987 62.6133ZM175.667 58.6533L173.057 50.9433L170.477 58.6533H175.667Z" fill="#ECEBE9"/>
<path d="M21.63 11.94L14.16 33H7.74L0.27 11.94H5.73L10.95 27.84L16.2 11.94H21.63ZM34.9041 11.94V33H29.7741V11.94H34.9041ZM63.4617 33H58.3317L49.7517 20.01V33H44.6217V11.94H49.7517L58.3317 24.99V11.94H63.4617V33ZM78.3103 11.94V33H73.1803V11.94H78.3103ZM87.158 22.44C87.158 20.36 87.608 18.51 88.508 16.89C89.408 15.25 90.658 13.98 92.258 13.08C93.878 12.16 95.708 11.7 97.748 11.7C100.248 11.7 102.388 12.36 104.168 13.68C105.948 15 107.138 16.8 107.738 19.08H102.098C101.678 18.2 101.078 17.53 100.298 17.07C99.538 16.61 98.668 16.38 97.688 16.38C96.108 16.38 94.828 16.93 93.848 18.03C92.868 19.13 92.378 20.6 92.378 22.44C92.378 24.28 92.868 25.75 93.848 26.85C94.828 27.95 96.108 28.5 97.688 28.5C98.668 28.5 99.538 28.27 100.298 27.81C101.078 27.35 101.678 26.68 102.098 25.8H107.738C107.138 28.08 105.948 29.88 104.168 31.2C102.388 32.5 100.248 33.15 97.748 33.15C95.708 33.15 93.878 32.7 92.258 31.8C90.658 30.88 89.408 29.61 88.508 27.99C87.608 26.37 87.158 24.52 87.158 22.44ZM122.01 11.94V33H116.88V11.94H122.01ZM136.767 11.94V24.54C136.767 25.8 137.077 26.77 137.697 27.45C138.317 28.13 139.227 28.47 140.427 28.47C141.627 28.47 142.547 28.13 143.187 27.45C143.827 26.77 144.147 25.8 144.147 24.54V11.94H149.277V24.51C149.277 26.39 148.877 27.98 148.077 29.28C147.277 30.58 146.197 31.56 144.837 32.22C143.497 32.88 141.997 33.21 140.337 33.21C138.677 33.21 137.187 32.89 135.867 32.25C134.567 31.59 133.537 30.61 132.777 29.31C132.017 27.99 131.637 26.39 131.637 24.51V11.94H136.767ZM166.499 33.21C164.959 33.21 163.579 32.96 162.359 32.46C161.14 31.96 160.16 31.22 159.42 30.24C158.7 29.26 158.32 28.08 158.28 26.7H163.739C163.819 27.48 164.089 28.08 164.549 28.5C165.009 28.9 165.609 29.1 166.349 29.1C167.109 29.1 167.709 28.93 168.149 28.59C168.589 28.23 168.809 27.74 168.809 27.12C168.809 26.6 168.629 26.17 168.269 25.83C167.929 25.49 167.499 25.21 166.979 24.99C166.479 24.77 165.759 24.52 164.819 24.24C163.459 23.82 162.349 23.4 161.489 22.98C160.63 22.56 159.89 21.94 159.27 21.12C158.65 20.3 158.34 19.23 158.34 17.91C158.34 15.95 159.05 14.42 160.47 13.32C161.889 12.2 163.739 11.64 166.019 11.64C168.339 11.64 170.209 12.2 171.629 13.32C173.049 14.42 173.809 15.96 173.909 17.94H168.359C168.319 17.26 168.069 16.73 167.609 16.35C167.149 15.95 166.559 15.75 165.839 15.75C165.219 15.75 164.719 15.92 164.339 16.26C163.959 16.58 163.769 17.05 163.769 17.67C163.769 18.35 164.089 18.88 164.729 19.26C165.369 19.64 166.369 20.05 167.729 20.49C169.089 20.95 170.189 21.39 171.029 21.81C171.889 22.23 172.629 22.84 173.249 23.64C173.869 24.44 174.179 25.47 174.179 26.73C174.179 27.93 173.869 29.02 173.249 30C172.649 30.98 171.769 31.76 170.609 32.34C169.449 32.92 168.079 33.21 166.499 33.21Z" fill="#ECEBE9"/>
<rect y="46.6667" width="88.3333" height="40" fill="#E94109"/>
<path d="M81.6666 75L33.3333 75" stroke="#0E0E0E" stroke-width="3"/>
<path d="M195 75L81.6665 75" stroke="#E94109" stroke-width="3"/>
</svg>
